<svg width="375" height="99" viewBox="0 0 375 99" fill="none" xmlns="http://www.w3.org/2000/svg">
<path d="M0 1C31.5103 1 54.7368 29 73.7986 29C92.8604 29 122.82 1 146.5 1C170.18 1 201.326 29 223.5 29C245.674 29 268.769 1 296 1C323.231 1 351.937 29 374.5 29" stroke="#448128"/>
<path d="M0 24C31.5103 24 54.7368 52 73.7986 52C92.8604 52 122.82 24 146.5 24C170.18 24 201.326 52 223.5 52C245.674 52 268.769 24 296 24C323.231 24 351.937 52 374.5 52" stroke="#448128"/>
<path d="M0 47C31.5103 47 54.7368 75 73.7986 75C92.8604 75 122.82 47 146.5 47C170.18 47 201.326 75 223.5 75C245.674 75 268.769 47 296 47C323.231 47 351.937 75 374.5 75" stroke="#448128"/>
<path d="M0 70C31.5103 70 54.7368 98 73.7986 98C92.8604 98 122.82 70 146.5 70C170.18 70 201.326 98 223.5 98C245.674 98 268.769 70 296 70C323.231 70 351.937 98 374.5 98" stroke="#448128"/>
</svg>
