<svg width="204" height="90" viewBox="0 0 204 90" fill="none" xmlns="http://www.w3.org/2000/svg">
<circle cx="5.66667" cy="83.381" r="5.66667" fill="#FFF2C5"/>
<circle cx="33.1905" cy="83.381" r="5.66667" fill="#FFF2C5"/>
<circle cx="60.7143" cy="83.381" r="5.66667" fill="#FFF2C5"/>
<circle cx="88.2381" cy="83.381" r="5.66667" fill="#FFF2C5"/>
<circle cx="115.762" cy="83.381" r="5.66667" fill="#FFF2C5"/>
<circle cx="143.286" cy="83.381" r="5.66667" fill="#FFF2C5"/>
<circle cx="170.81" cy="83.381" r="5.66667" fill="#FFF2C5"/>
<circle cx="198.333" cy="83.381" r="5.66667" fill="#FFF2C5"/>
<circle cx="5.66667" cy="57.4761" r="5.66667" fill="#FFF2C5"/>
<circle cx="33.1905" cy="57.4761" r="5.66667" fill="#FFF2C5"/>
<circle cx="60.7143" cy="57.4761" r="5.66667" fill="#FFF2C5"/>
<circle cx="88.2381" cy="57.4761" r="5.66667" fill="#FFF2C5"/>
<circle cx="115.762" cy="57.4761" r="5.66667" fill="#FFF2C5"/>
<circle cx="143.286" cy="57.4761" r="5.66667" fill="#FFF2C5"/>
<circle cx="170.81" cy="57.4761" r="5.66667" fill="#FFF2C5"/>
<circle cx="198.333" cy="57.4761" r="5.66667" fill="#FFF2C5"/>
<circle cx="5.66667" cy="31.5714" r="5.66667" fill="#FFF2C5"/>
<circle cx="33.1905" cy="31.5714" r="5.66667" fill="#FFF2C5"/>
<circle cx="60.7143" cy="31.5714" r="5.66667" fill="#FFF2C5"/>
<circle cx="88.2381" cy="31.5714" r="5.66667" fill="#FFF2C5"/>
<circle cx="115.762" cy="31.5714" r="5.66667" fill="#FFF2C5"/>
<circle cx="143.286" cy="31.5714" r="5.66667" fill="#FFF2C5"/>
<circle cx="170.81" cy="31.5714" r="5.66667" fill="#FFF2C5"/>
<circle cx="198.333" cy="31.5714" r="5.66667" fill="#FFF2C5"/>
<circle cx="5.66667" cy="5.66667" r="5.66667" fill="#FFF2C5"/>
<circle cx="33.1905" cy="5.66667" r="5.66667" fill="#FFF2C5"/>
<circle cx="60.7143" cy="5.66667" r="5.66667" fill="#FFF2C5"/>
<circle cx="88.2381" cy="5.66667" r="5.66667" fill="#FFF2C5"/>
<circle cx="115.762" cy="5.66667" r="5.66667" fill="#FFF2C5"/>
<circle cx="143.286" cy="5.66667" r="5.66667" fill="#FFF2C5"/>
<circle cx="170.81" cy="5.66667" r="5.66667" fill="#FFF2C5"/>
<circle cx="198.333" cy="5.66667" r="5.66667" fill="#FFF2C5"/>
</svg>
