<svg width="104" height="50" viewBox="0 0 104 50" fill="none" xmlns="http://www.w3.org/2000/svg">
<path d="M4.23793 29L0.402699 14.2727H5.11044L7.09517 23.7074H7.21982L9.34837 14.2727H13.9411L16.1271 23.6403H16.2518L18.179 14.2727H22.8867L19.0419 29H14.0273L11.7262 20.4187H11.5632L9.26207 29H4.23793ZM27.0952 34.5227C26.5327 34.5227 26.0022 34.478 25.5036 34.3885C25.005 34.3054 24.5767 34.1935 24.2188 34.0529L25.2543 30.6491C25.7145 30.8026 26.13 30.892 26.5007 30.9176C26.8779 30.9432 27.2007 30.8825 27.4691 30.7354C27.744 30.5948 27.9549 30.3423 28.102 29.978L28.2841 29.5369L23.049 14.2727H27.9581L30.6716 24.7812H30.825L33.5767 14.2727H38.5146L32.9631 30.4094C32.6946 31.2148 32.3143 31.9244 31.8221 32.538C31.3363 33.158 30.7067 33.6438 29.9333 33.9954C29.1662 34.3469 28.2202 34.5227 27.0952 34.5227ZM44.4609 9.36364V29H39.7724V9.36364H44.4609ZM53.7799 29.2781C52.233 29.2781 50.9034 28.9616 49.7912 28.3288C48.6854 27.6896 47.8321 26.8011 47.2312 25.6634C46.6367 24.5192 46.3395 23.1928 46.3395 21.6843C46.3395 20.1694 46.6367 18.843 47.2312 17.7053C47.8321 16.5611 48.6854 15.6726 49.7912 15.0398C50.9034 14.4006 52.233 14.081 53.7799 14.081C55.3267 14.081 56.6531 14.4006 57.7589 15.0398C58.8711 15.6726 59.7245 16.5611 60.3189 17.7053C60.9198 18.843 61.2202 20.1694 61.2202 21.6843C61.2202 23.1928 60.9198 24.5192 60.3189 25.6634C59.7245 26.8011 58.8711 27.6896 57.7589 28.3288C56.6531 28.9616 55.3267 29.2781 53.7799 29.2781ZM53.8086 25.7401C54.3711 25.7401 54.8473 25.5675 55.2372 25.2223C55.6272 24.8771 55.9244 24.3977 56.1289 23.7841C56.3399 23.1705 56.4453 22.4609 56.4453 21.6555C56.4453 20.8374 56.3399 20.1214 56.1289 19.5078C55.9244 18.8942 55.6272 18.4148 55.2372 18.0696C54.8473 17.7244 54.3711 17.5518 53.8086 17.5518C53.2269 17.5518 52.7348 17.7244 52.3321 18.0696C51.9358 18.4148 51.6321 18.8942 51.4212 19.5078C51.2166 20.1214 51.1144 20.8374 51.1144 21.6555C51.1144 22.4609 51.2166 23.1705 51.4212 23.7841C51.6321 24.3977 51.9358 24.8771 52.3321 25.2223C52.7348 25.5675 53.2269 25.7401 53.8086 25.7401ZM67.7706 20.6009V29H63.082V9.36364H67.6172V16.9766H67.7802C68.1126 16.0689 68.6559 15.3594 69.4101 14.848C70.1708 14.3366 71.1008 14.081 72.2003 14.081C73.2358 14.081 74.1371 14.3111 74.9041 14.7713C75.6711 15.2251 76.2656 15.8675 76.6875 16.6985C77.1157 17.5295 77.3267 18.5011 77.3203 19.6133V29H72.6317V20.5337C72.6381 19.7156 72.4336 19.0763 72.0181 18.6161C71.6026 18.1559 71.0177 17.9258 70.2635 17.9258C69.7713 17.9258 69.3366 18.0344 68.9595 18.2518C68.5888 18.4627 68.2979 18.7663 68.087 19.1626C67.8824 19.5589 67.777 20.0384 67.7706 20.6009ZM84.3956 20.6009V29H79.7071V14.2727H84.1655V16.9766H84.3285C84.6545 16.0753 85.2106 15.369 85.9968 14.8576C86.783 14.3398 87.7195 14.081 88.8061 14.081C89.8416 14.081 90.7397 14.3143 91.5004 14.7809C92.2674 15.2411 92.8619 15.8867 93.2838 16.7177C93.712 17.5423 93.923 18.5075 93.9166 19.6133V29H89.228V20.5337C89.2344 19.7156 89.0267 19.0763 88.6048 18.6161C88.1893 18.1559 87.6108 17.9258 86.8693 17.9258C86.3772 17.9258 85.9425 18.0344 85.5654 18.2518C85.1946 18.4627 84.907 18.7663 84.7024 19.1626C84.5043 19.5589 84.402 20.0384 84.3956 20.6009ZM98.9161 29.2781C98.2257 29.2781 97.6345 29.0352 97.1423 28.5494C96.6565 28.0636 96.4168 27.4755 96.4232 26.7852C96.4168 26.1076 96.6565 25.5291 97.1423 25.0497C97.6345 24.5639 98.2257 24.321 98.9161 24.321C99.5681 24.321 100.143 24.5639 100.642 25.0497C101.147 25.5291 101.403 26.1076 101.409 26.7852C101.403 27.2454 101.281 27.6641 101.045 28.0412C100.815 28.4183 100.511 28.7187 100.134 28.9425C99.763 29.1662 99.3571 29.2781 98.9161 29.2781Z" fill="black"/>
<path d="M3.55966 45.1094C2.99621 45.1094 2.48414 44.9635 2.02344 44.6719C1.56274 44.3802 1.19484 43.9427 0.919744 43.3594C0.64465 42.776 0.507102 42.0518 0.507102 41.1868C0.507102 40.2886 0.649621 39.5495 0.934659 38.9695C1.2197 38.3894 1.59257 37.9602 2.05327 37.6818C2.51728 37.4034 3.0161 37.2642 3.54972 37.2642C3.95076 37.2642 4.2938 37.3338 4.57884 37.473C4.86387 37.6089 5.0992 37.7846 5.2848 38C5.47041 38.2154 5.61127 38.4392 5.70739 38.6712H5.7571V34.8182H8.18821V45H5.78196V43.7621H5.70739C5.60464 43.9974 5.45881 44.2178 5.26989 44.4233C5.08097 44.6288 4.84399 44.7945 4.55895 44.9205C4.27723 45.0464 3.94413 45.1094 3.55966 45.1094ZM4.40483 43.2152C4.69981 43.2152 4.9517 43.1323 5.16051 42.9666C5.36932 42.7976 5.53007 42.5606 5.64276 42.2557C5.75545 41.9508 5.81179 41.5928 5.81179 41.1818C5.81179 40.7642 5.75545 40.4046 5.64276 40.103C5.53338 39.8014 5.37263 39.5694 5.16051 39.407C4.9517 39.2446 4.69981 39.1634 4.40483 39.1634C4.10322 39.1634 3.84801 39.2462 3.6392 39.4119C3.4304 39.5777 3.27131 39.8113 3.16193 40.1129C3.05587 40.4145 3.00284 40.7708 3.00284 41.1818C3.00284 41.5928 3.05753 41.9508 3.1669 42.2557C3.27628 42.5606 3.43371 42.7976 3.6392 42.9666C3.84801 43.1323 4.10322 43.2152 4.40483 43.2152ZM13.0153 45.1442C12.2165 45.1442 11.5271 44.9867 10.9471 44.6719C10.3704 44.3537 9.92626 43.9013 9.61471 43.3146C9.30647 42.7247 9.15235 42.0237 9.15235 41.2116C9.15235 40.4228 9.30813 39.7334 9.61968 39.1435C9.93123 38.5502 10.3704 38.0895 10.9372 37.7614C11.5039 37.4299 12.1718 37.2642 12.9407 37.2642C13.4843 37.2642 13.9814 37.3487 14.4322 37.5178C14.8829 37.6868 15.2724 37.937 15.6005 38.2685C15.9286 38.5999 16.1838 39.0092 16.3661 39.4964C16.5484 39.9804 16.6396 40.5355 16.6396 41.1619V41.7685H10.0025V40.3565H14.3775C14.3742 40.098 14.3129 39.8677 14.1935 39.6655C14.0742 39.4633 13.9102 39.3059 13.7014 39.1932C13.4959 39.0772 13.2589 39.0192 12.9904 39.0192C12.7186 39.0192 12.475 39.0805 12.2596 39.2031C12.0442 39.3224 11.8735 39.4865 11.7475 39.6953C11.6216 39.9008 11.5553 40.1345 11.5487 40.3963V41.8331C11.5487 42.1446 11.61 42.4181 11.7326 42.6534C11.8552 42.8854 12.0292 43.0661 12.2546 43.1953C12.48 43.3246 12.7485 43.3892 13.06 43.3892C13.2755 43.3892 13.471 43.3594 13.6467 43.2997C13.8223 43.2401 13.9731 43.1522 14.0991 43.0362C14.225 42.9202 14.3195 42.7777 14.3825 42.6087L16.6147 42.6733C16.5219 43.1738 16.3181 43.6096 16.0032 43.9808C15.6917 44.3487 15.2823 44.6354 14.7752 44.8409C14.2681 45.0431 13.6815 45.1442 13.0153 45.1442ZM24.8038 37.3636L22.1838 45H19.3997L16.7846 37.3636H19.345L20.752 42.6236H20.8315L22.2434 37.3636H24.8038ZM28.7795 45.1442C27.9807 45.1442 27.2913 44.9867 26.7113 44.6719C26.1346 44.3537 25.6905 43.9013 25.3789 43.3146C25.0707 42.7247 24.9166 42.0237 24.9166 41.2116C24.9166 40.4228 25.0723 39.7334 25.3839 39.1435C25.6955 38.5502 26.1346 38.0895 26.7014 37.7614C27.2681 37.4299 27.936 37.2642 28.7049 37.2642C29.2485 37.2642 29.7456 37.3487 30.1964 37.5178C30.6472 37.6868 31.0366 37.937 31.3647 38.2685C31.6928 38.5999 31.9481 39.0092 32.1303 39.4964C32.3126 39.9804 32.4038 40.5355 32.4038 41.1619V41.7685H25.7667V40.3565H30.1417C30.1384 40.098 30.0771 39.8677 29.9578 39.6655C29.8384 39.4633 29.6744 39.3059 29.4656 39.1932C29.2601 39.0772 29.0231 39.0192 28.7546 39.0192C28.4829 39.0192 28.2392 39.0805 28.0238 39.2031C27.8084 39.3224 27.6377 39.4865 27.5117 39.6953C27.3858 39.9008 27.3195 40.1345 27.3129 40.3963V41.8331C27.3129 42.1446 27.3742 42.4181 27.4968 42.6534C27.6195 42.8854 27.7935 43.0661 28.0188 43.1953C28.2442 43.3246 28.5127 43.3892 28.8242 43.3892C29.0397 43.3892 29.2352 43.3594 29.4109 43.2997C29.5866 43.2401 29.7374 43.1522 29.8633 43.0362C29.9892 42.9202 30.0837 42.7777 30.1467 42.6087L32.3789 42.6733C32.2861 43.1738 32.0823 43.6096 31.7674 43.9808C31.4559 44.3487 31.0465 44.6354 30.5394 44.8409C30.0323 45.0431 29.4457 45.1442 28.7795 45.1442ZM35.7965 34.8182V45H33.3654V34.8182H35.7965ZM40.6286 45.1442C39.8265 45.1442 39.1371 44.9801 38.5604 44.652C37.987 44.3205 37.5445 43.8598 37.233 43.2699C36.9247 42.6766 36.7706 41.9889 36.7706 41.2067C36.7706 40.4212 36.9247 39.7334 37.233 39.1435C37.5445 38.5502 37.987 38.0895 38.5604 37.7614C39.1371 37.4299 39.8265 37.2642 40.6286 37.2642C41.4307 37.2642 42.1184 37.4299 42.6918 37.7614C43.2685 38.0895 43.711 38.5502 44.0192 39.1435C44.3308 39.7334 44.4865 40.4212 44.4865 41.2067C44.4865 41.9889 44.3308 42.6766 44.0192 43.2699C43.711 43.8598 43.2685 44.3205 42.6918 44.652C42.1184 44.9801 41.4307 45.1442 40.6286 45.1442ZM40.6435 43.3097C40.9352 43.3097 41.1821 43.2202 41.3843 43.0412C41.5864 42.8622 41.7406 42.6136 41.8466 42.2955C41.956 41.9773 42.0107 41.6094 42.0107 41.1918C42.0107 40.7675 41.956 40.3963 41.8466 40.0781C41.7406 39.7599 41.5864 39.5114 41.3843 39.3324C41.1821 39.1534 40.9352 39.0639 40.6435 39.0639C40.3419 39.0639 40.0867 39.1534 39.8779 39.3324C39.6724 39.5114 39.5149 39.7599 39.4056 40.0781C39.2995 40.3963 39.2465 40.7675 39.2465 41.1918C39.2465 41.6094 39.2995 41.9773 39.4056 42.2955C39.5149 42.6136 39.6724 42.8622 39.8779 43.0412C40.0867 43.2202 40.3419 43.3097 40.6435 43.3097ZM45.4519 47.8636V37.3636H47.8582V38.6712H47.9327C48.0322 38.4392 48.173 38.2154 48.3553 38C48.5409 37.7846 48.7763 37.6089 49.0613 37.473C49.3497 37.3338 49.6943 37.2642 50.0954 37.2642C50.6257 37.2642 51.1212 37.4034 51.5819 37.6818C52.0459 37.9602 52.4204 38.3894 52.7055 38.9695C52.9905 39.5495 53.133 40.2886 53.133 41.1868C53.133 42.0518 52.9955 42.776 52.7204 43.3594C52.4486 43.9427 52.0807 44.3802 51.6167 44.6719C51.156 44.9635 50.6439 45.1094 50.0805 45.1094C49.696 45.1094 49.3629 45.0464 49.0812 44.9205C48.7995 44.7945 48.5625 44.6288 48.3702 44.4233C48.1813 44.2178 48.0355 43.9974 47.9327 43.7621H47.883V47.8636H45.4519ZM47.8333 41.1818C47.8333 41.5928 47.888 41.9508 47.9974 42.2557C48.1101 42.5606 48.2708 42.7976 48.4796 42.9666C48.6917 43.1323 48.9453 43.2152 49.2403 43.2152C49.5386 43.2152 49.7921 43.1323 50.0009 42.9666C50.2097 42.7976 50.3672 42.5606 50.4732 42.2557C50.5826 41.9508 50.6373 41.5928 50.6373 41.1818C50.6373 40.7708 50.5826 40.4145 50.4732 40.1129C50.3672 39.8113 50.2097 39.5777 50.0009 39.4119C49.7954 39.2462 49.5419 39.1634 49.2403 39.1634C48.942 39.1634 48.6884 39.2446 48.4796 39.407C48.2708 39.5694 48.1101 39.8014 47.9974 40.103C47.888 40.4046 47.8333 40.7642 47.8333 41.1818ZM57.6966 45.1442C56.8978 45.1442 56.2084 44.9867 55.6284 44.6719C55.0517 44.3537 54.6076 43.9013 54.296 43.3146C53.9878 42.7247 53.8337 42.0237 53.8337 41.2116C53.8337 40.4228 53.9895 39.7334 54.301 39.1435C54.6126 38.5502 55.0517 38.0895 55.6185 37.7614C56.1852 37.4299 56.8531 37.2642 57.622 37.2642C58.1656 37.2642 58.6628 37.3487 59.1135 37.5178C59.5643 37.6868 59.9537 37.937 60.2818 38.2685C60.61 38.5999 60.8652 39.0092 61.0475 39.4964C61.2298 39.9804 61.3209 40.5355 61.3209 41.1619V41.7685H54.6838V40.3565H59.0588C59.0555 40.098 58.9942 39.8677 58.8749 39.6655C58.7556 39.4633 58.5915 39.3059 58.3827 39.1932C58.1772 39.0772 57.9402 39.0192 57.6717 39.0192C57.4 39.0192 57.1564 39.0805 56.9409 39.2031C56.7255 39.3224 56.5548 39.4865 56.4289 39.6953C56.3029 39.9008 56.2366 40.1345 56.23 40.3963V41.8331C56.23 42.1446 56.2913 42.4181 56.4139 42.6534C56.5366 42.8854 56.7106 43.0661 56.936 43.1953C57.1613 43.3246 57.4298 43.3892 57.7414 43.3892C57.9568 43.3892 58.1523 43.3594 58.328 43.2997C58.5037 43.2401 58.6545 43.1522 58.7804 43.0362C58.9064 42.9202 59.0008 42.7777 59.0638 42.6087L61.296 42.6733C61.2032 43.1738 60.9994 43.6096 60.6845 43.9808C60.373 44.3487 59.9637 44.6354 59.4565 44.8409C58.9494 45.0431 58.3628 45.1442 57.6966 45.1442ZM62.2825 45V37.3636H64.6441V38.7557H64.7236C64.8628 38.2519 65.0898 37.8774 65.4047 37.6321C65.7196 37.3835 66.0858 37.2592 66.5034 37.2592C66.6161 37.2592 66.7321 37.2675 66.8514 37.2841C66.9708 37.2973 67.0818 37.3189 67.1845 37.3487V39.4616C67.0685 39.4219 66.9161 39.3904 66.7272 39.3672C66.5415 39.344 66.3758 39.3324 66.23 39.3324C65.9416 39.3324 65.6815 39.397 65.4495 39.5263C65.2208 39.6522 65.0401 39.8295 64.9075 40.0582C64.7783 40.2836 64.7137 40.5488 64.7137 40.8537V45H62.2825Z" fill="black"/>
</svg>
