<svg width="252" height="110" viewBox="0 0 252 110" fill="none" xmlns="http://www.w3.org/2000/svg">
<circle cx="7" cy="103" r="7" fill="#5D7694"/>
<circle cx="41" cy="103" r="7" fill="#5D7694"/>
<circle cx="75" cy="103" r="7" fill="#5D7694"/>
<circle cx="109" cy="103" r="7" fill="#5D7694"/>
<circle cx="143" cy="103" r="7" fill="#5D7694"/>
<circle cx="177" cy="103" r="7" fill="#5D7694"/>
<circle cx="211" cy="103" r="7" fill="#5D7694"/>
<circle cx="245" cy="103" r="7" fill="#5D7694"/>
<circle cx="7" cy="71" r="7" fill="#5D7694"/>
<circle cx="41" cy="71" r="7" fill="#5D7694"/>
<circle cx="75" cy="71" r="7" fill="#5D7694"/>
<circle cx="109" cy="71" r="7" fill="#5D7694"/>
<circle cx="143" cy="71" r="7" fill="#5D7694"/>
<circle cx="177" cy="71" r="7" fill="#5D7694"/>
<circle cx="211" cy="71" r="7" fill="#5D7694"/>
<circle cx="245" cy="71" r="7" fill="#5D7694"/>
<circle cx="7" cy="39" r="7" fill="#5D7694"/>
<circle cx="41" cy="39" r="7" fill="#5D7694"/>
<circle cx="75" cy="39" r="7" fill="#5D7694"/>
<circle cx="109" cy="39" r="7" fill="#5D7694"/>
<circle cx="143" cy="39" r="7" fill="#5D7694"/>
<circle cx="177" cy="39" r="7" fill="#5D7694"/>
<circle cx="211" cy="39" r="7" fill="#5D7694"/>
<circle cx="245" cy="39" r="7" fill="#5D7694"/>
<circle cx="7" cy="7" r="7" fill="#5D7694"/>
<circle cx="41" cy="7" r="7" fill="#5D7694"/>
<circle cx="75" cy="7" r="7" fill="#5D7694"/>
<circle cx="109" cy="7" r="7" fill="#5D7694"/>
<circle cx="143" cy="7" r="7" fill="#5D7694"/>
<circle cx="177" cy="7" r="7" fill="#5D7694"/>
<circle cx="211" cy="7" r="7" fill="#5D7694"/>
<circle cx="245" cy="7" r="7" fill="#5D7694"/>
</svg>
